<svg width="67" height="67" viewBox="0 0 67 67" fill="none" xmlns="http://www.w3.org/2000/svg">
<g clip-path="url(#clip0_61_29)">
<path fill-rule="evenodd" clip-rule="evenodd" d="M33.5 0C24.6152 0 16.0944 3.52945 9.81192 9.81192C3.52945 16.0944 0 24.6152 0 33.5C0 42.3848 3.52945 50.9056 9.81192 57.1881C16.0944 63.4705 24.6152 67 33.5 67C42.3848 67 50.9056 63.4705 57.1881 57.1881C63.4705 50.9056 67 42.3848 67 33.5C67 24.6152 63.4705 16.0944 57.1881 9.81192C50.9056 3.52945 42.3848 0 33.5 0ZM47.4695 11.9093C48.3836 11.9093 49.2976 12.2562 49.9892 12.9454L54.0546 17.0132C54.7173 17.6849 55.0889 18.5905 55.0889 19.5341C55.0889 20.4777 54.7173 21.3833 54.0546 22.055L53.1765 22.9331C53.1415 22.9731 53.1039 23.0107 53.064 23.0456L52.6189 23.4883C52.5409 23.5672 52.4523 23.6348 52.3557 23.6893C52.3549 23.6909 52.3541 23.6925 52.3533 23.6941L50.8769 25.0508C50.8168 25.2089 50.7238 25.3524 50.6041 25.472L43.7606 32.3155L54.2963 42.8561C55.1984 43.7582 55.1984 45.3207 54.2963 46.2204L48.5535 51.9633C48.1001 52.3974 47.4966 52.6397 46.8689 52.6397C46.2412 52.6397 45.6377 52.3974 45.1843 51.9633L45.1795 51.9609L34.761 41.3127L27.8696 48.2065C27.7225 48.4218 27.5091 48.5831 27.2618 48.6659L16.2547 52.2552C16.0446 52.3236 15.8197 52.3325 15.6048 52.2809C15.39 52.2293 15.1937 52.1193 15.0375 51.9629C14.8814 51.8066 14.7717 51.61 14.7204 51.3951C14.6692 51.1802 14.6784 50.9553 14.7472 50.7453L18.3365 39.7382C18.3997 39.5468 18.5103 39.3745 18.658 39.2373C18.8057 39.1001 18.9856 39.0024 19.1811 38.9533L25.7878 32.3466L15.0391 21.8205L15.0343 21.8157C14.6002 21.3623 14.3579 20.7588 14.3579 20.1311C14.3579 19.5034 14.6002 18.8999 15.0343 18.4465L20.7772 12.7037C20.9998 12.486 21.2632 12.3144 21.5523 12.1986C21.8413 12.0828 22.1504 12.0251 22.4618 12.0289C23.0898 12.0219 23.6948 12.2647 24.1439 12.7037L34.7921 23.3495L41.2816 16.8577C41.2939 16.8414 41.3067 16.8254 41.3199 16.8098L43.3011 14.6467C43.3584 14.5486 43.4293 14.4592 43.5117 14.3811L43.9544 13.936C43.9868 13.9021 44.0211 13.8701 44.0573 13.8403L44.945 12.9454C45.2772 12.6154 45.6711 12.354 46.1042 12.1762C46.5374 11.9985 47.0013 11.9077 47.4695 11.9093ZM47.4647 14.2351C47.1824 14.2351 46.9048 14.3715 46.6368 14.6371L45.7155 15.5536L44.1219 17.298L49.702 22.8781L51.3914 21.3347L51.4464 21.2845C51.4512 21.2796 51.456 21.2749 51.4608 21.2701L52.3629 20.3608C52.8965 19.8296 52.8965 19.2362 52.3629 18.7026L48.295 14.6371C48.0294 14.3715 47.7447 14.2351 47.4647 14.2351ZM22.4594 14.4026L16.738 20.1311L18.4824 21.8372L20.1646 20.155L22.5335 22.5192L20.8753 24.1798L23.3375 26.5966L27.4604 22.4737L29.8294 24.8426L25.7352 28.9344L27.4867 30.6573L33.1004 25.0436L22.4618 14.405L22.4594 14.4026ZM42.2076 19.3151L21.3347 40.188L22.8302 41.6836L43.7031 20.8107L42.2076 19.3151ZM46.0721 23.182L25.1968 44.0525L26.9172 45.773L47.7901 24.9001L46.0673 23.1796L46.0721 23.182ZM42.0664 34.0097L36.4528 39.6233L38.0991 41.2983L39.7382 39.6592L42.1071 42.0281L40.4393 43.6984L43.0212 46.3329L47.0292 42.3201L49.3981 44.689L45.3614 48.7257L46.8689 50.2644L52.595 44.5382L42.0664 34.0097ZM20.0043 42.3368L18.0063 48.4601L18.5399 48.9937L24.6632 46.9981L20.0043 42.3368Z" fill="#FB624D"/>
</g>
<defs>
<clipPath id="clip0_61_29">
<rect width="67" height="67" fill="white"/>
</clipPath>
</defs>
</svg>
