<svg width="72" height="72" viewBox="0 0 72 72" fill="none" xmlns="http://www.w3.org/2000/svg">
<path d="M35.1056 0.151872C27.7312 0.317809 20.3681 2.75625 14.1384 7.53469C7.25383 12.8214 2.52455 20.4294 0.830672 28.9428C-0.863207 37.4562 0.5937 46.295 4.93026 53.8144C5.11674 54.1377 5.42403 54.3738 5.78454 54.4706C6.14505 54.5673 6.52924 54.5169 6.8526 54.3305C7.17596 54.144 7.41199 53.8367 7.50878 53.4762C7.60557 53.1157 7.55518 52.7315 7.3687 52.4081C3.36596 45.4825 2.01938 37.3373 3.58018 29.4919C5.14097 21.6465 9.50253 14.6369 15.8512 9.77062C21.7163 5.26717 28.926 2.86781 36.3201 2.95862C43.7142 3.04942 50.8628 5.62512 56.6156 10.2712H55.1756C54.8026 10.2712 54.4449 10.4194 54.1812 10.6831C53.9175 10.9469 53.7693 11.3045 53.7693 11.6775C53.7693 12.0505 53.9175 12.4081 54.1812 12.6719C54.4449 12.9356 54.8026 13.0837 55.1756 13.0837H60.2915C60.6645 13.0837 61.0222 12.9356 61.2859 12.6719C61.5496 12.4081 61.6978 12.0505 61.6978 11.6775V6.56156C61.7 6.37356 61.6646 6.18702 61.5935 6.01296C61.5225 5.8389 61.4172 5.68085 61.284 5.54817C61.1508 5.41549 60.9924 5.31087 60.818 5.24049C60.6437 5.17012 60.457 5.13541 60.269 5.13843C59.897 5.14436 59.5425 5.29745 59.2832 5.56418C59.0238 5.83091 58.8807 6.18955 58.8853 6.56156V8.48531C52.2345 2.91057 43.7814 -0.0517735 35.1056 0.151872ZM35.9212 7.50656C25.8412 7.50656 17.3924 13.0753 12.3468 21.0066H12.2849V21.0909C9.52307 25.4728 7.50651 30.3609 7.50651 35.9184C7.50651 41.4731 9.52307 46.3613 12.2878 50.7431V50.8303H12.344C17.3924 58.7616 25.8412 64.3331 35.924 64.3331C46.0068 64.3331 54.4556 58.7644 59.4984 50.8331H59.5546V50.7487C62.3221 46.3669 64.3387 41.4759 64.3387 35.9184C64.3387 30.3581 62.3221 25.47 59.5546 21.0853V21.0094H59.4984C54.4556 13.0781 46.0068 7.50937 35.924 7.50937L35.9212 7.50656ZM34.5149 10.6059V21.0094H24.6937C25.5192 17.9556 26.5165 14.9508 27.6806 12.0094C29.8821 11.2177 32.1853 10.7442 34.5206 10.6031L34.5149 10.6059ZM37.3274 10.6059C39.5789 10.742 41.8009 11.1867 43.9312 11.9278C45.1104 14.8952 46.1199 17.9273 46.9546 21.0094H37.3303V10.6031L37.3274 10.6059ZM47.4806 13.455C50.9127 15.2885 53.8886 17.8703 56.1881 21.0094H49.8937C49.2468 18.5062 48.4031 15.9834 47.4778 13.455H47.4806ZM24.1115 13.5816C23.2048 16.0179 22.4136 18.4956 21.7406 21.0066H15.6599C17.9014 17.9443 20.7861 15.41 24.1115 13.5816ZM65.7787 17.4881C65.5379 17.5 65.3041 17.5736 65.0999 17.7019C64.8958 17.8302 64.728 18.0088 64.6128 18.2207C64.4975 18.4325 64.4387 18.6704 64.4419 18.9115C64.4452 19.1526 64.5103 19.3888 64.6312 19.5975C68.6339 26.5231 69.9805 34.6684 68.4197 42.5137C66.8589 50.3591 62.4974 57.3687 56.1487 62.235C50.296 66.7277 43.1045 69.1255 35.7267 69.0439C28.3489 68.9623 21.2121 66.4061 15.4603 61.785H16.8103C17.1832 61.785 17.5409 61.6368 17.8046 61.3731C18.0684 61.1094 18.2165 60.7517 18.2165 60.3787C18.2165 60.0058 18.0684 59.6481 17.8046 59.3844C17.5409 59.1207 17.1832 58.9725 16.8103 58.9725H11.9306C11.7615 58.9511 11.59 58.9607 11.4243 59.0006C11.4253 59.0006 11.4234 59.0006 11.4243 59.0006C11.1067 59.0655 10.8184 59.238 10.6134 59.4892C10.4084 59.7403 10.2964 60.0546 10.2965 60.3787V65.4919C10.2965 65.8648 10.4447 66.2225 10.7084 66.4862C10.9721 66.75 11.3298 66.8981 11.7028 66.8981C12.0757 66.8981 12.4334 66.75 12.6971 66.4862C12.9608 66.2225 13.109 65.8648 13.109 65.4919V63.5034C18.9298 68.3874 26.1565 71.2879 33.7387 71.7834C42.4021 72.3599 50.9788 69.7603 57.8643 64.4709C64.7489 59.1842 69.4782 51.5762 71.172 43.0628C72.8659 34.5495 71.409 25.7106 67.0725 18.1912C66.9429 17.9659 66.7533 17.7809 66.525 17.6568C66.2966 17.5327 66.0383 17.4743 65.7787 17.4881ZM13.7643 23.8219H21.0684C20.2978 27.3408 19.8293 30.9191 19.6678 34.5178H10.6059C10.8281 30.6084 11.984 27.0647 13.7643 23.8219ZM23.9203 23.8219H34.5178V34.5178H22.4493C22.6178 30.9156 23.1101 27.3358 23.9203 23.8219ZM37.3303 23.8219H47.7224C48.5326 27.3358 49.0249 30.9156 49.1934 34.5178H37.3303V23.8219ZM50.5687 23.8219H58.0837C59.8612 27.0647 61.0171 30.6084 61.2421 34.5178H51.9693C51.8078 30.9191 51.3392 27.3408 50.5687 23.8219ZM10.6031 37.3303H19.6199C19.6368 40.8684 19.9715 44.4291 20.6606 48.0234H13.7671C11.9868 44.7806 10.8309 41.2369 10.6087 37.3303H10.6031ZM22.3931 37.3303H34.5149V48.0234H23.504C22.7828 44.5043 22.4107 40.9226 22.3931 37.3303ZM37.3274 37.3303H49.2496C49.2321 40.9226 48.8599 44.5043 48.1387 48.0234H37.3303L37.3274 37.3303ZM52.0171 37.3303H61.2421C61.0171 41.2397 59.8612 44.7834 58.0837 48.0234H50.9793C51.6568 44.499 52.0024 40.9192 52.0171 37.3303ZM15.6599 50.8359H21.2849C21.8474 53.1562 22.5421 55.4962 23.4028 57.8559C20.3749 56.062 17.7411 53.6741 15.6599 50.8359ZM24.1537 50.8359H34.5178V61.2422C31.9837 61.0904 29.4884 60.5468 27.1209 59.6306C25.9242 56.773 24.9318 53.834 24.1509 50.8359H24.1537ZM37.3303 50.8359H47.4918C46.702 53.8655 45.6963 56.8347 44.4824 59.7206C42.1875 60.5807 39.7767 61.0926 37.3303 61.2394V50.8359ZM50.3578 50.8359H56.1881C54.0487 53.7618 51.3225 56.2093 48.1837 58.0219C49.0753 55.6031 49.784 53.2125 50.3578 50.8359Z" fill="#0A9D45"/>
</svg>
