<svg width="81" height="81" viewBox="0 0 81 81" fill="none" xmlns="http://www.w3.org/2000/svg">
<g clip-path="url(#clip0_61_52)">
<path d="M40.5 80.8333C18.2244 80.8333 0.166626 62.7739 0.166626 40.5C0.166626 18.2228 18.2244 0.166679 40.5 0.166679C62.7772 0.166679 80.8333 18.2228 80.8333 40.5C80.8333 62.7739 62.7772 80.8333 40.5 80.8333ZM40.5 7.56837C22.3126 7.56837 7.56831 22.3125 7.56831 40.5C7.56831 58.6875 22.3126 73.4317 40.5 73.4317C58.6889 73.4317 73.4316 58.6875 73.4316 40.5C73.4316 22.3126 58.6889 7.56837 40.5 7.56837Z" fill="#FFBB38"/>
<path d="M40.5 66.3238C26.2382 66.3238 14.6746 54.7617 14.6746 40.5C14.6746 26.2365 26.2382 14.6745 40.5 14.6745C54.7634 14.6745 66.3254 26.2365 66.3254 40.5C66.3254 54.7617 54.7634 66.3238 40.5 66.3238ZM40.5 21.387C29.944 21.387 21.387 29.944 21.387 40.5C21.387 51.0527 29.944 59.613 40.5 59.613C51.056 59.613 59.613 51.0527 59.613 40.5C59.613 29.9439 51.0559 21.387 40.5 21.387Z" fill="#FFBB38"/>
<path d="M40.5 53.0254C33.5824 53.0254 27.9729 47.4175 27.9729 40.5C27.9729 33.5825 33.5824 27.9714 40.5 27.9714C47.4192 27.9714 53.027 33.5825 53.027 40.5C53.027 47.4175 47.4192 53.0254 40.5 53.0254ZM40.5 34.2225C37.0338 34.2225 34.2241 37.0338 34.2241 40.5C34.2241 43.9662 37.0338 46.7759 40.5 46.7759C43.9661 46.7759 46.7758 43.9661 46.7758 40.5C46.7758 37.0339 43.9661 34.2225 40.5 34.2225Z" fill="#FFBB38"/>
<path d="M40.4999 37.3456C38.7602 37.3456 37.3489 38.7604 37.3489 40.5C37.3489 42.2379 38.7602 43.651 40.4999 43.651C42.2395 43.651 43.6509 42.238 43.6509 40.5C43.6509 38.7604 42.2395 37.3456 40.4999 37.3456Z" fill="#FFBB38"/>
</g>
<defs>
<clipPath id="clip0_61_52">
<rect width="80.6667" height="80.6667" fill="white" transform="matrix(1 0 0 -1 0.166626 80.8333)"/>
</clipPath>
</defs>
</svg>
