<svg width="65" height="74" viewBox="0 0 65 74" fill="none" xmlns="http://www.w3.org/2000/svg">
<path d="M32.5 25.4985C31.2623 25.4525 30.0392 25.7774 28.9875 26.4317C27.9359 27.0859 27.1039 28.0395 26.5982 29.1701C26.0925 30.3007 25.9363 31.5566 26.1496 32.7766C26.3629 33.9966 26.936 35.125 27.7953 36.017C28.6546 36.9089 29.7608 37.5236 30.9721 37.7822C32.1833 38.0408 33.4441 37.9315 34.5928 37.4683C35.7414 37.0051 36.7254 36.2091 37.4183 35.1826C38.1113 34.156 38.4816 32.9458 38.4817 31.7073C38.5095 30.0914 37.8954 28.5304 36.7741 27.3666C35.6528 26.2027 34.1158 25.5309 32.5 25.4985ZM32.5 35.226C31.7939 35.273 31.0901 35.1066 30.4799 34.7483C29.8697 34.39 29.3813 33.8565 29.0783 33.217C28.7753 32.5775 28.6716 31.8617 28.7808 31.1626C28.89 30.4634 29.2069 29.8133 29.6904 29.2966C30.1739 28.78 30.8016 28.4207 31.492 28.2655C32.1824 28.1102 32.9035 28.1663 33.5616 28.4262C34.2197 28.6862 34.7844 29.1381 35.1823 29.7233C35.5802 30.3084 35.793 30.9997 35.7928 31.7073C35.8206 32.61 35.4898 33.4869 34.8727 34.1463C34.2556 34.8057 33.4025 35.1939 32.5 35.226ZM61.9543 47.7041C60.8035 47.0442 59.4638 46.7915 58.1516 46.9869C56.8394 47.1823 55.6314 47.8143 54.7227 48.7809L50.2453 46.1959C51.6029 43.4971 52.3124 40.5189 52.3175 37.4979C52.3226 34.477 51.6231 31.4964 50.2747 28.7931L54.7359 26.2183C55.3594 26.8806 56.1281 27.3892 56.9814 27.7042C57.8348 28.0192 58.7496 28.1319 59.6539 28.0335C60.5582 27.9351 61.4274 27.6282 62.193 27.137C62.9587 26.6458 63.5999 25.9837 64.0663 25.2028C64.5328 24.4218 64.8117 23.5433 64.8811 22.6363C64.9505 21.7293 64.8086 20.8186 64.4665 19.9757C64.1244 19.1329 63.5914 18.3808 62.9095 17.7788C62.2275 17.1768 61.4152 16.7412 60.5364 16.5063C59.7894 16.3023 59.0093 16.2491 58.2415 16.3498C57.4737 16.4506 56.7336 16.7033 56.0646 17.0932C54.9167 17.7593 54.0271 18.7933 53.5399 20.0278C53.0528 21.2623 52.9964 22.6252 53.3801 23.8957L48.945 26.4555C47.2584 23.9497 45.0212 21.8628 42.4045 20.3541C39.7878 18.8454 36.8607 17.955 33.8471 17.7508V12.6173C35.2551 12.2872 36.4925 11.4512 37.3241 10.2681C38.1557 9.08502 38.5234 7.63753 38.3572 6.20101C38.191 4.7645 37.5025 3.43921 36.4227 2.47728C35.343 1.51536 33.9473 0.983943 32.5012 0.984131C31.0551 0.984319 29.6595 1.5161 28.58 2.4783C27.5004 3.44051 26.8123 4.76598 26.6465 6.20254C26.4806 7.63909 26.8487 9.08649 27.6806 10.2693C28.5125 11.4522 29.7502 12.288 31.1582 12.6176V17.7507C28.1454 17.9539 25.2189 18.843 22.6022 20.3501C19.9856 21.8572 17.748 23.9425 16.0605 26.4466L11.6303 23.8859C12.0533 22.4934 11.9495 20.994 11.3385 19.6732C10.7275 18.3524 9.65211 17.3024 8.31705 16.7232C6.982 16.144 5.48055 16.076 4.09862 16.5323C2.7167 16.9885 1.55083 17.937 0.823036 19.1973C0.0952381 20.4575 -0.143653 21.9414 0.151855 23.3663C0.447363 24.7913 1.25663 26.0578 2.42554 26.9247C3.59446 27.7916 5.04137 28.1983 6.49076 28.0673C7.94014 27.9364 9.29075 27.277 10.2854 26.2147L14.7298 28.7836C13.3799 31.4867 12.6789 34.4675 12.6826 37.489C12.6864 40.5105 13.3947 43.4895 14.7513 46.1893L10.2772 48.7697C9.65344 48.106 8.8842 47.596 8.02997 47.2799C7.17575 46.9638 6.25984 46.8503 5.35428 46.9481C4.44872 47.046 3.57821 47.3526 2.81123 47.8439C2.04426 48.3351 1.40172 48.9977 0.934166 49.7793C0.466614 50.561 0.186797 51.4405 0.116726 52.3486C0.0466546 53.2568 0.18824 54.1688 0.530345 55.0129C0.872451 55.8571 1.40575 56.6103 2.08828 57.2134C2.77082 57.8166 3.58398 58.2531 4.46381 58.4887C5.47756 58.7639 6.54657 58.7623 7.55949 58.484C8.57241 58.2057 9.49219 57.6609 10.223 56.9064C10.9539 56.1519 11.469 55.2152 11.7149 54.1939C11.9607 53.1726 11.9282 52.1041 11.6208 51.0996L16.094 48.5197C17.7538 51.0421 19.9793 53.1425 22.5935 54.6537C25.2077 56.1649 28.1384 57.0453 31.1526 57.225L31.1508 62.3828C30.0736 62.6367 29.0896 63.1891 28.3119 63.9767C27.5342 64.7642 26.9943 65.755 26.7539 66.8353C26.5135 67.9157 26.5825 69.042 26.9529 70.0849C27.3234 71.1279 27.9803 72.0454 28.8483 72.7321C29.7163 73.4188 30.7603 73.8469 31.8605 73.9675C32.9607 74.088 34.0726 73.896 35.0687 73.4135C36.0648 72.931 36.9047 72.1775 37.4922 71.2395C38.0796 70.3014 38.3908 69.2168 38.39 68.11C38.3864 66.7828 37.9353 65.4941 37.1095 64.4551C36.2837 63.4161 35.1317 62.6861 33.8396 62.383L33.8414 57.2251C36.8555 57.0469 39.7865 56.1676 42.4011 54.6573C45.0157 53.147 47.2417 51.0474 48.902 48.5254L53.3772 51.1093C52.9591 52.4922 53.064 53.9805 53.672 55.291C54.28 56.6015 55.3485 57.6428 56.6743 58.2166C58.0001 58.7905 59.4906 58.8569 60.8622 58.4033C62.2338 57.9496 63.3907 57.0075 64.1128 55.7563C64.8914 54.4016 65.1014 52.7935 64.6968 51.2844C64.2923 49.7752 63.3061 48.4878 61.9543 47.7041ZM57.409 19.4222C57.9581 19.1055 58.5886 18.9587 59.2211 19.0004C59.8535 19.042 60.4594 19.2703 60.9622 19.6562C61.465 20.0422 61.842 20.5685 62.0457 21.1687C62.2493 21.7689 62.2704 22.4161 62.1064 23.0283C61.9423 23.6405 61.6004 24.1903 61.1239 24.6083C60.6474 25.0262 60.0577 25.2935 59.4293 25.3763C58.8009 25.4591 58.1621 25.3538 57.5936 25.0736C57.025 24.7934 56.5524 24.3509 56.2353 23.8022C56.0211 23.4384 55.8815 23.0357 55.8246 22.6175C55.7677 22.1992 55.7947 21.7738 55.9039 21.3661C56.0132 20.9584 56.2025 20.5765 56.461 20.2428C56.7194 19.909 57.0417 19.6301 57.409 19.4222ZM6.82955 25.2818C6.42326 25.3924 5.99904 25.421 5.58158 25.366C5.16412 25.311 4.76179 25.1735 4.39801 24.9615C3.75571 24.5903 3.26199 24.0066 3.00099 23.3122C2.74 22.6177 2.72788 21.8543 2.96669 21.152C3.20551 20.4496 3.68049 19.8518 4.31069 19.4604C4.94088 19.069 5.6873 18.9083 6.42273 19.0056C7.15817 19.1028 7.83712 19.4521 8.34387 19.9939C8.85063 20.5357 9.15383 21.2364 9.20181 21.9767C9.2498 22.717 9.03959 23.4511 8.60702 24.0537C8.17444 24.6564 7.54627 25.0904 6.82955 25.2818ZM7.59107 55.5712C7.16543 55.8162 6.68919 55.9601 6.1991 55.9918C5.70902 56.0235 5.21821 55.9422 4.76455 55.7541C4.3109 55.566 3.90653 55.2761 3.58268 54.9069C3.25882 54.5377 3.02414 54.0991 2.89674 53.6248C2.76935 53.1505 2.75265 52.6532 2.84793 52.1715C2.94321 51.6897 3.14793 51.2363 3.44629 50.8462C3.74464 50.4561 4.12865 50.1398 4.56866 49.9216C5.00867 49.7035 5.49292 49.5894 5.98403 49.5882C6.26693 49.5885 6.54856 49.626 6.82167 49.6998C7.22813 49.8074 7.60915 49.9948 7.94261 50.2509C8.27608 50.507 8.55534 50.8268 8.76417 51.1918L8.76546 51.1946C9.18941 51.9308 9.30386 52.8053 9.08367 53.6258C8.86348 54.4464 8.32666 55.1461 7.59107 55.5712ZM29.2965 6.89289C29.2965 6.25907 29.4844 5.63949 29.8365 5.11248C30.1886 4.58546 30.689 4.17468 31.2746 3.93206C31.8601 3.68945 32.5044 3.6259 33.1261 3.74945C33.7478 3.87301 34.3188 4.17811 34.7671 4.62619C35.2153 5.07427 35.5207 5.6452 35.6445 6.2668C35.7683 6.8884 35.705 7.53276 35.4627 8.1184C35.2203 8.70404 34.8097 9.20467 34.2829 9.55698C33.756 9.9093 33.1365 10.0975 32.5027 10.0977C31.6529 10.0968 30.8381 9.75886 30.2371 9.15808C29.6361 8.5573 29.2978 7.74269 29.2965 6.89289ZM24.2128 45.3605C24.2088 44.9957 24.2778 44.6337 24.4156 44.2959C24.5534 43.958 24.7574 43.6511 25.0154 43.3932C25.2735 43.1353 25.5805 42.9315 25.9184 42.7938C26.2563 42.6561 26.6183 42.5874 26.9831 42.5915H38.0065C38.3714 42.5874 38.7334 42.6561 39.0713 42.7938C39.4092 42.9315 39.7162 43.1353 39.9742 43.3932C40.2323 43.6511 40.4362 43.958 40.574 44.2959C40.7119 44.6337 40.7808 44.9957 40.7768 45.3605L40.7822 52.444C40.4837 52.6094 40.1825 52.7684 39.8748 52.9145C39.6265 53.0327 39.3827 53.1602 39.129 53.2657C38.626 53.4742 38.1097 53.6455 37.5893 53.8039C37.3971 53.8626 37.2095 53.9356 37.0154 53.9875C36.3544 54.1622 35.6837 54.2978 35.0068 54.3935C34.9419 54.4029 34.8789 54.4206 34.8139 54.4293C33.2753 54.6319 31.7168 54.6316 30.1783 54.4285C30.1417 54.4238 30.1061 54.4134 30.0695 54.4083C29.363 54.3103 28.6632 54.1689 27.9742 53.9847C27.7983 53.9375 27.6282 53.8708 27.4538 53.818C26.9143 53.6593 26.3832 53.4735 25.8623 53.2614C25.6139 53.1579 25.3749 53.0326 25.1317 52.9168C24.8218 52.7701 24.5186 52.6092 24.2181 52.4426L24.2128 45.3605ZM35.701 68.1071C35.7013 68.7413 35.5135 69.3613 35.1613 69.8887C34.8092 70.4162 34.3085 70.8273 33.7227 71.0702C33.1369 71.3131 32.4922 71.3768 31.8701 71.2532C31.2481 71.1297 30.6767 70.8244 30.2281 70.3761C29.7796 69.9277 29.4741 69.3564 29.3503 68.7344C29.2265 68.1125 29.2899 67.4677 29.5325 66.8818C29.7752 66.2959 30.1861 65.795 30.7134 65.4427C31.2407 65.0903 31.8606 64.9022 32.4948 64.9022C33.3443 64.9043 34.1584 65.2425 34.7592 65.8431C35.36 66.4436 35.6986 67.2576 35.701 68.1071ZM43.4692 50.6208L43.4658 45.3592C43.4635 43.9123 42.8875 42.5253 41.8641 41.5024C40.8408 40.4796 39.4535 39.9042 38.0066 39.9027H26.9831C25.5358 39.9044 24.1482 40.4801 23.1248 41.5036C22.1014 42.527 21.5257 43.9145 21.5239 45.3618L21.5274 50.6182C18.8248 48.3636 16.8823 45.3312 15.9642 41.9336C15.046 38.5359 15.1968 34.9378 16.396 31.6289C17.5952 28.32 19.7846 25.4608 22.6664 23.4402C25.5482 21.4197 28.9824 20.3359 32.502 20.3364C36.0215 20.3368 39.4555 21.4214 42.3368 23.4426C45.218 25.4639 47.4068 28.3236 48.6051 31.6329C49.8035 34.9421 49.9535 38.5402 49.0345 41.9376C48.1155 45.3351 46.1724 48.3669 43.4692 50.6208ZM61.7838 54.4106C61.3577 55.1461 60.6573 55.6825 59.8362 55.9023C59.0151 56.1221 58.1404 56.0072 57.4039 55.5829C57.0393 55.3727 56.7196 55.0927 56.4633 54.7589C56.2069 54.4251 56.0189 54.044 55.9099 53.6375C55.8008 53.231 55.773 52.807 55.828 52.3897C55.8829 51.9724 56.0196 51.5701 56.2301 51.2056C56.5125 50.7177 56.9184 50.3127 57.4071 50.0315C57.8957 49.7503 58.4498 49.6028 59.0135 49.6038C59.5743 49.6035 60.1251 49.7517 60.6101 50.0331C61.3448 50.4592 61.8809 51.1591 62.1008 51.9795C62.3208 52.7999 62.2069 53.6741 61.7838 54.4106ZM13.3995 17.8966C13.3114 17.7436 13.2542 17.5748 13.2314 17.3998C13.2085 17.2248 13.2203 17.047 13.2662 16.8766C13.312 16.7062 13.391 16.5464 13.4986 16.4065C13.6061 16.2666 13.7402 16.1492 13.8931 16.0611L23.2228 10.6833C23.3758 10.5949 23.5446 10.5376 23.7198 10.5145C23.8949 10.4913 24.0728 10.503 24.2435 10.5487C24.4141 10.5944 24.5741 10.6732 24.7142 10.7807C24.8543 10.8883 24.9719 11.0224 25.0602 11.1753C25.1485 11.3283 25.2058 11.4972 25.2289 11.6723C25.2519 11.8475 25.2402 12.0254 25.1944 12.196C25.1486 12.3666 25.0697 12.5266 24.9621 12.6666C24.8545 12.8067 24.7203 12.9242 24.5673 13.0125L15.2376 18.3903C14.9284 18.5685 14.561 18.6166 14.2163 18.524C13.8716 18.4315 13.5778 18.2058 13.3995 17.8966ZM51.5717 57.102C51.6603 57.2548 51.7178 57.4236 51.741 57.5986C51.7643 57.7737 51.7528 57.9516 51.7072 58.1222C51.6615 58.2928 51.5827 58.4528 51.4752 58.5929C51.3677 58.733 51.2336 58.8505 51.0807 58.9388L41.7771 64.3166C41.4683 64.4946 41.1013 64.5427 40.757 64.4504C40.4127 64.358 40.1191 64.1326 39.9409 63.8239C39.7627 63.5151 39.7144 63.1482 39.8066 62.8038C39.8988 62.4595 40.124 62.1658 40.4327 61.9874L49.7362 56.6096C49.889 56.5213 50.0578 56.4639 50.2328 56.4409C50.4078 56.4178 50.5856 56.4295 50.7561 56.4752C50.9265 56.5209 51.0863 56.5998 51.2263 56.7074C51.3663 56.8149 51.4836 56.949 51.5717 57.102ZM59.0134 30.7778C59.19 30.7777 59.3649 30.8124 59.528 30.8799C59.6912 30.9474 59.8395 31.0465 59.9643 31.1713C60.0892 31.2962 60.1882 31.4444 60.2557 31.6076C60.3233 31.7708 60.358 31.9456 60.3579 32.1222V42.8778C60.3579 43.2343 60.2162 43.5763 59.9641 43.8284C59.712 44.0806 59.37 44.2222 59.0134 44.2222C58.6569 44.2222 58.3149 44.0806 58.0628 43.8284C57.8106 43.5763 57.669 43.2343 57.669 42.8778V32.1222C57.6689 31.9456 57.7036 31.7708 57.7711 31.6076C57.8386 31.4444 57.9377 31.2962 58.0625 31.1713C58.1874 31.0465 58.3356 30.9474 58.4988 30.8799C58.662 30.8124 58.8368 30.7777 59.0134 30.7778ZM5.98403 44.2222C5.80738 44.2218 5.63254 44.1866 5.4695 44.1186C5.30646 44.0507 5.15841 43.9512 5.03381 43.826C4.90921 43.7008 4.8105 43.5522 4.74332 43.3889C4.67614 43.2255 4.6418 43.0505 4.64227 42.8739L4.67115 32.1183C4.67243 31.7625 4.81461 31.4217 5.06658 31.1704C5.31854 30.9192 5.65978 30.778 6.01559 30.7778C6.19224 30.7782 6.36976 30.8134 6.53281 30.8814C6.69585 30.9493 6.8439 31.0488 6.9685 31.174C7.0931 31.2992 7.19181 31.4477 7.25899 31.6111C7.32617 31.7745 7.36051 31.9495 7.36004 32.1261L7.33116 42.8817C7.32988 43.2375 7.1877 43.5783 6.93573 43.8296C6.68376 44.0808 6.33984 44.222 5.98403 44.2222ZM25.0583 63.8242C24.9701 63.9771 24.8527 64.1111 24.7127 64.2185C24.5728 64.326 24.413 64.4048 24.2426 64.4506C24.0721 64.4963 23.8943 64.508 23.7194 64.485C23.5444 64.462 23.3757 64.4048 23.2228 64.3166L13.9193 58.9388C13.6106 58.7604 13.3854 58.4667 13.2932 58.1224C13.201 57.778 13.2493 57.4111 13.4275 57.1023C13.6058 56.7936 13.8993 56.5682 14.2436 56.4758C14.588 56.3834 14.9549 56.4316 15.2637 56.6096L24.5673 61.9874C24.7203 62.0756 24.8543 62.1932 24.9619 62.3333C25.0694 62.4734 25.1482 62.6334 25.1938 62.804C25.2394 62.9746 25.2509 63.1525 25.2277 63.3276C25.2044 63.5026 25.1469 63.6714 25.0583 63.8242ZM39.9418 11.1731C40.0303 11.0202 40.1481 10.8864 40.2885 10.7791C40.4288 10.6719 40.589 10.5934 40.7597 10.5481C40.9305 10.5029 41.1085 10.4918 41.2835 10.5154C41.4586 10.5391 41.6272 10.597 41.7799 10.686L51.0282 16.0585C51.2492 16.1705 51.435 16.3413 51.5652 16.5521C51.6954 16.7629 51.7649 17.0055 51.766 17.2533C51.7676 17.4292 51.7343 17.6036 51.6682 17.7666C51.602 17.9296 51.5042 18.0778 51.3804 18.2028C51.2566 18.3278 51.1094 18.427 50.947 18.4948C50.7847 18.5626 50.6106 18.5976 50.4347 18.5977C50.1893 18.5977 49.9479 18.5349 49.7336 18.4152L40.4301 13.0099C40.2773 12.9215 40.1434 12.8038 40.0361 12.6636C39.9288 12.5234 39.8503 12.3634 39.8049 12.1928C39.7596 12.0222 39.7483 11.8443 39.7718 11.6693C39.7953 11.4943 39.853 11.3257 39.9418 11.1731Z" fill="#0C76C3"/>
</svg>
