<svg width="158" height="147" viewBox="0 0 158 147" fill="none" xmlns="http://www.w3.org/2000/svg">
<path d="M79.0298 3.57942C-21.1959 3.57942 -23.4842 143.221 79.0298 143.221" stroke="#D0FFE3" stroke-width="6"/>
<path d="M79.0298 3C179.177 3 181.463 143.221 79.0298 143.221" stroke="#D0FFE3" stroke-width="6"/>
<path d="M79.0297 3C9.32604 3 7.17467 143.221 79.0297 143.221" stroke="#D0FFE3" stroke-width="6"/>
<path d="M79.0298 3C148.734 3 150.885 143.221 79.0298 143.221" stroke="#D0FFE3" stroke-width="6"/>
<path d="M79.0001 3C46.0198 3 44.4341 143.023 79.0001 143.023" stroke="#D0FFE3" stroke-width="6"/>
<path d="M78.9999 3C111.98 3 113.566 143.023 78.9999 143.023" stroke="#D0FFE3" stroke-width="6"/>
<path d="M3.05957 73.6899C3.05957 76.7072 155 76.8523 155 73.6899" stroke="#D0FFE3" stroke-width="6"/>
<path d="M11.9893 38.9032C17.8527 55.0896 141.823 53.8201 146.011 38.9032" stroke="#D0FFE3" stroke-width="6"/>
<path d="M11.9893 108.017C17.8527 91.8306 141.823 93.1001 146.011 108.017" stroke="#D0FFE3" stroke-width="6"/>
</svg>
